# AST/ASF file generated using VICON BodyLanguage
# -----------------------------------------------
:version 1.10
:name VICON
:units
  mass 1.0
  length 0.45
  angle deg
:documentation
   .ast/.asf automatically generated from VICON data using
   VICON BodyBuilder and BodyLanguage model FoxedUp or BRILLIANT.MOD
:root
   order TX TY TZ RX RY RZ
   axis XYZ
   position 0 0 0  
   orientation 0 0 0 
:bonedata
  begin
     id 1 
     name lhipjoint
     direction 0.677091 -0.635792 0.370561 
     length 2.74323 
     axis 0 0 0  XYZ
  end
  begin
     id 2 
     name lfemur
     direction 0.34202 -0.939693 0  
     length 7.44995  
     axis 0 0 20  XYZ
    dof rx ry rz
    limits (-160.0 20.0)
           (-70.0 70.0)
           (-60.0 70.0)
  end
  begin
     id 3 
     name ltibia
     direction 0.34202 -0.939693 0   
     length 7.34467   
     axis 0 0 20   XYZ
    dof rx
    limits (-10.0 170.0)
  end
  begin
     id 4 
     name lfoot
     direction 0.101953 -0.280114 0.954537   
     length 1.72105   
     axis -90 7.62852e-016 20   XYZ
    dof rx rz
    limits (-45.0 90.0)
           (-70.0 20.0)
  end
  begin
     id 5 
     name ltoes
     direction 1.53537e-011 -4.21915e-011 1   
     length 0.865872   
     axis -90 7.62852e-016 20   XYZ
    dof rx
    limits (-90.0 20.0)
  end
  begin
     id 6 
     name rhipjoint
     direction -0.695735 -0.620586 0.361699   
     length 2.81045  
     axis 0 0 0  XYZ 
  end
  begin
     id 7 
     name rfemur
     direction -0.34202 -0.939693 0   
     length 7.29387   
     axis 0 0 -20   XYZ
    dof rx ry rz
    limits (-160.0 20.0)
           (-70.0 70.0)
           (-70.0 60.0)
  end
  begin
     id 8 
     name rtibia
     direction -0.34202 -0.939693 0   
     length 7.44935   
     axis 0 0 -20   XYZ
    dof rx
    limits (-10.0 170.0)
 end
 begin
     id 9 
     name rfoot
     direction -0.104163 -0.286184 0.952496   
     length 1.77731  
     axis -90 -7.62852e-016 -20   XYZ
    dof rx rz
    limits (-45.0 90.0)
           (-20.0 70.0)
  end
  begin
     id 10 
     name rtoes
     direction -1.5355e-011 -4.21888e-011 1   
     length 0.892424   
     axis -90 -7.62852e-016 -20   XYZ
    dof rx
    limits (-90.0 20.0)
  end
  begin
     id 11 
     name lowerback
     direction 0.0100202 0.997226 -0.0737589   
     length 2.16892   
     axis 0 0 0   XYZ
    dof rx ry rz
    limits (-20.0 45.0)
           (-30.0 30.0)
           (-30.0 30.0)
  end
  begin
     id 12 
     name upperback
     direction 0.00432398 0.999988 -0.00215019   
     length 2.17326   
     axis 0 0 0   XYZ
    dof rx ry rz
    limits (-20.0 45.0)
           (-30.0 30.0)
           (-30.0 30.0)
  end
  begin
     id 13 
     name thorax
     direction -0.00195047 0.999485 0.0320434   
     length 2.18139   
     axis 0 0 0   XYZ
    dof rx ry rz
    limits (-20.0 45.0)
           (-30.0 30.0)
           (-30.0 30.0)
  end
  begin
     id 14 
     name lowerneck
     direction 0.00782762 0.986241 0.165128   
     length 1.88415   
     axis 0 0 0   XYZ
    dof rx ry rz
    limits (-20.0 45.0)
           (-30.0 30.0)
           (-30.0 30.0)
  end
  begin
     id 15 
     name upperneck
     direction 0.00988667 0.981098 -0.193258   
     length 1.9242   
     axis 0 0 0   XYZ
    dof rx ry rz
    limits (-20.0 45.0)
           (-30.0 30.0)
           (-30.0 30.0)
  end
  begin
     id 16
     name head
     direction 0.00252199 0.996513 -0.0833958  
     length 1.93887  
     axis 0 0 0   XYZ
    dof rx ry rz
    limits (-20.0 45.0)
           (-30.0 30.0)
           (-30.0 30.0)
  end
  begin
     id 17 
     name lclavicle
     direction 0.929492 0.368193 -0.0218667  
     length 3.5955  
     axis 0 0 0   XYZ
    dof ry rz
    limits (-20.0 10.0)
           (0.0 20.0)
  end
  begin
     id 18 
     name lhumerus
     direction 1 -4.48972e-011 1.41911e-027   
     length 5.2795   
     axis 180 -30 -90   XYZ
    dof rx ry rz
    limits (-60.0 90.0)
           (-90.0 90.0)
           (-90.0 90.0)
  end
  begin
     id 19
     name lradius
     direction 1 -4.48963e-011 7.05772e-027   
     length 3.53504   
     axis 180 -30 -90   XYZ
    dof rx
    limits (-10.0 170.0)
  end
  begin
     id 20
     name lwrist
     direction 1 -4.48957e-011 9.54866e-027   
     length 1.76752   
     axis -7.69462e-015 90 90   XYZ
    dof ry
    limits (-180.0 0.0)
 end
  begin
     id 21 
     name lhand
     direction 1 -4.48979e-011 1.90973e-026   
     length 0.667948   
     axis -1.21857e-014 90 90   XYZ
    dof rx rz
    limits (-90.0 90.0)
           (-45.0 45.0)
  end
  begin
     id 22 
     name lfingers
     direction 1 -4.48987e-011 3.81946e-026   
     length 0.538517   
     axis -2.43714e-014 90 90   XYZ
    dof rx
    limits (0.0 90.0)
  end
  begin
     id 23
     name lthumb
     direction 0.707107 -6.34962e-011 0.707107   
     length 0.773206   
     axis -90 45 2.85299e-015   XYZ
    dof rx rz
    limits (-45.0 45.0)
           (-45.0 45.0)
  end
  begin
     id 24 
     name rclavicle
     direction -0.898763 0.414256 -0.143584   
     length 3.5176  
     axis 0 0 0   XYZ 
    dof ry rz
    limits (-10.0 20.0)
           (-20.0 0.0)
  end
  begin
     id 25 
     name rhumerus
     direction -1 -4.48971e-011 1.129e-027  
     length 5.25035   
     axis 180 30 90   XYZ
    dof rx ry rz
    limits (-90.0 60.0)
           (-90.0 90.0)
           (-90.0 90.0)
  end
  begin
     id 26 
     name rradius
     direction -1 -4.48955e-011 6.34664e-027   
     length 3.58884   
     axis 180 30 90   XYZ
    dof rx
    limits (-10.0 170.0)
  end
  begin
     id 27 
     name rwrist
     direction -1 -4.48966e-011 9.54866e-027   
     length 1.79442   
     axis -7.69462e-015 -90 -90   XYZ
    dof ry
    limits (-180.0 0.0)
  end
  begin
     id 28
     name rhand
     direction -1 -4.48973e-011 1.90973e-026   
     length 0.779235   
     axis -1.21857e-014 -90 -90   XYZ
    dof rx rz
    limits (-90.0 90.0)
           (-45.0 45.0)
  end
  begin
     id 29
     name rfingers
     direction -1 -4.48984e-011 3.81946e-026   
     length 0.62824   
     axis -2.43714e-014 -90 -90   XYZ
    dof rx
    limits (0.0 90.0)
  end
  begin
     id 30
     name rthumb
     direction -0.707107 -6.34968e-011 0.707107   
     length 0.90203   
     axis -90 -45 -2.85299e-015   XYZ
    dof rx rz
    limits (-45.0 45.0)
           (-45.0 45.0)
  end
:hierarchy
  begin
    root lhipjoint rhipjoint lowerback
    lhipjoint lfemur
    lfemur ltibia
    ltibia lfoot
    lfoot ltoes
    rhipjoint rfemur
    rfemur rtibia
    rtibia rfoot
    rfoot rtoes
    lowerback upperback
    upperback thorax
    thorax lowerneck lclavicle rclavicle
    lowerneck upperneck
    upperneck head
    lclavicle lhumerus
    lhumerus lradius
    lradius lwrist
    lwrist lhand lthumb
    lhand lfingers
    rclavicle rhumerus
    rhumerus rradius
    rradius rwrist
    rwrist rhand rthumb
    rhand rfingers
  end

#!OML:ASF I:\Random Stuff\random\construction\7_22_03\Session 2\subj1.ASF
:FULLY-SPECIFIED
:DEGREES
33
root 6.04346 17.4573 -11.5066 4.15621 2.64321 -4.31539
lowerback 2.42755 1.53322 2.64775
upperback -1.41575 2.16133 0.716948
thorax -2.74557 1.03544 -0.847931
lowerneck -23.3777 3.50794 4.06361
upperneck 27.5302 3.17732 0.974329
head 13.2149 1.97701 0.273499
rclavicle -2.79541e-015 -1.2921e-014
rhumerus -31.3215 -2.97634 -84.391
rradius 25.1877
rwrist -5.72287
rhand -22.3939 20.6334
rfingers 7.12502
rthumb 4.0284 -9.30825
lclavicle -2.79541e-015 -1.2921e-014
lhumerus -35.536 -9.18867 90.7892
lradius 33.2259
lwrist 28.8258
lhand -19.7917 58.6014
lfingers 7.12502
lthumb 6.54095 88.4804
rfemur 5.43278 -3.76395 23.6845
rtibia 3.18055e-015
rfoot -8.37735 -13.6157
rtoes -5.6328
lfemur -12.7761 -8.47462 -11.0691
ltibia 28.2467
lfoot -18.8353 6.93675
ltoes -29.1704
34
root 6.04265 17.4579 -11.502 4.19938 2.64043 -4.29634
lowerback 2.41741 1.54455 2.59769
upperback -1.42995 2.17478 0.722539
thorax -2.75606 1.04291 -0.814793
lowerneck -23.2402 3.53166 4.06434
upperneck 27.4204 3.22961 0.942696
head 13.1427 1.99488 0.266444
rclavicle -2.93332e-014 -2.36554e-014
rhumerus -31.3153 -3.14581 -84.3051
rradius 25.0741
rwrist -5.42139
rhand -22.3539 20.6861
rfingers 7.12502
rthumb 4.06707 -9.25484
lclavicle -2.93332e-014 -2.36554e-014
lhumerus -35.5774 -9.24315 90.8401
lradius 33.2804
lwrist 28.9295
lhand -19.8214 58.5734
lfingers 7.12502
lthumb 6.51221 88.4532
rfemur 5.41065 -3.76062 23.6658
rtibia -1.59028e-015
rfoot -8.40978 -13.5943
rtoes -5.36068
lfemur -12.8019 -8.4468 -11.0871
ltibia 28.2373
lfoot -18.8197 6.8775
ltoes -29.0573
35
root 6.04131 17.4589 -11.4962 4.27414 2.62269 -4.28196
lowerback 2.36598 1.55913 2.56758
upperback -1.44797 2.19155 0.712855
thorax -2.74582 1.05178 -0.80738
lowerneck -23.1794 3.53352 4.10916
upperneck 27.3598 3.24619 0.856621
head 13.1082 1.99428 0.226503
rclavicle 2.86498e-014 1.53064e-014
rhumerus -31.3196 -3.23975 -84.2666
rradius 25.0294
rwrist -5.16458
rhand -22.3283 20.5893
rfingers 7.12502
rthumb 4.09179 -9.35118
lclavicle 2.86498e-014 1.53064e-014
lhumerus -35.6277 -9.275 90.854
lradius 33.3369
lwrist 29.0228
lhand -19.8695 58.6146
lfingers 7.12502
lthumb 6.46576 88.4959
rfemur 5.35602 -3.73993 23.6508
rtibia -3.18055e-014
rfoot -8.45421 -13.584
rtoes -5.10111
lfemur -12.8456 -8.40018 -11.0932
ltibia 28.2185
lfoot -18.8098 6.85473
ltoes -29.0413
36
root 6.03967 17.4606 -11.4906 4.32822 2.62694 -4.28719
lowerback 2.34734 1.56762 2.57
upperback -1.46407 2.20236 0.699559
thorax -2.75097 1.05682 -0.822551
lowerneck -23.1642 3.52205 4.22249
upperneck 27.316 3.24266 0.682238
head 13.0929 1.97961 0.138299
rclavicle -1.53437e-014 -5.96354e-015
rhumerus -31.3165 -3.30043 -84.2734
rradius 24.9698
rwrist -4.91911
rhand -22.183 20.6743
rfingers 7.12502
rthumb 4.23206 -9.2634
lclavicle -1.53437e-014 -5.96354e-015
lhumerus -35.6447 -9.19701 90.8387
lradius 33.3451
lwrist 28.9784
lhand -20.0043 58.624
lfingers 7.12502
lthumb 6.33568 88.5092
rfemur 5.31728 -3.7409 23.6577
rtibia 0
rfoot -8.49365 -13.5739
rtoes -4.82316
lfemur -12.8743 -8.4066 -11.0778
ltibia 28.1973
lfoot -18.7696 6.90032
ltoes -29.1572
37
root 6.03795 17.4616 -11.486 4.35064 2.61481 -4.31371
lowerback 2.38644 1.56625 2.57615
upperback -1.47205 2.20242 0.704752
thorax -2.78121 1.05632 -0.822037
lowerneck -23.157 3.53624 4.24067
upperneck 27.2736 3.27546 0.622997
head 13.0761 1.98707 0.117473
rclavicle 2.17296e-014 1.39149e-015
rhumerus -31.2794 -3.34131 -84.3075
rradius 24.9059
rwrist -4.70121
rhand -22.0836 20.7782
rfingers 7.12502
rthumb 4.32805 -9.15756
lclavicle 2.17296e-014 1.39149e-015
lhumerus -35.6528 -9.01653 90.8049
lradius 33.3521
lwrist 28.8151
lhand -20.073 58.5776
lfingers 7.12502
lthumb 6.2693 88.4648
rfemur 5.30094 -3.72574 23.693
rtibia -2.38542e-014
rfoot -8.4957 -13.5803
rtoes -4.72436
lfemur -12.865 -8.4744 -11.0466
ltibia 28.172
lfoot -18.7536 6.9937
ltoes -29.2273
38
root 6.03712 17.462 -11.482 4.37215 2.58353 -4.29653
lowerback 2.43728 1.55556 2.53125
upperback -1.4785 2.18834 0.702567
thorax -2.81845 1.04961 -0.800305
lowerneck -23.2083 3.56103 4.18779
upperneck 27.3156 3.30319 0.702331
head 13.1016 2.00499 0.163572
rclavicle -2.1916e-014 -5.76476e-015
rhumerus -31.2709 -3.29887 -84.351
rradius 24.9413
rwrist -4.53704
rhand -22.0917 20.5571
rfingers 7.12502
rthumb 4.32025 -9.37887
lclavicle -2.1916e-014 -5.76476e-015
lhumerus -35.7014 -8.85321 90.757
lradius 33.4115
lwrist 28.6912
lhand -20.0338 58.594
lfingers 7.12502
lthumb 6.30716 88.4801
rfemur 5.28716 -3.69483 23.677
rtibia -1.59028e-015
rfoot -8.50321 -13.5982
rtoes -4.64647
lfemur -12.8447 -8.50077 -11.0664
ltibia 28.1383
lfoot -18.7871 7.06151
ltoes -29.2559
39
root 6.03662 17.4625 -11.4787 4.39377 2.56575 -4.24297
lowerback 2.48102 1.55506 2.46254
upperback -1.4919 2.18641 0.684623
thorax -2.85873 1.04918 -0.78189
lowerneck -23.2157 3.56096 4.17155
upperneck 27.3467 3.29716 0.739105
head 13.1147 2.00609 0.180037
rclavicle 3.04016e-014 3.97569e-015
rhumerus -31.3074 -3.31263 -84.33
rradius 24.9996
rwrist -4.30118
rhand -21.9185 20.3072
rfingers 7.12502
rthumb 4.4875 -9.62526
lclavicle 3.04016e-014 3.97569e-015
lhumerus -35.7647 -8.81908 90.7417
lradius 33.4565
lwrist 28.6558
lhand -20.0106 58.664
lfingers 7.12502
lthumb 6.32958 88.5494
rfemur 5.28104 -3.68021 23.6086
rtibia -3.18055e-015
rfoot -8.52653 -13.5632
rtoes -4.46733
lfemur -12.8282 -8.49767 -11.1256
ltibia 28.0963
lfoot -18.7787 7.08259
ltoes -29.2477
40
root 6.03626 17.4631 -11.4768 4.40371 2.57815 -4.21988
lowerback 2.54216 1.54986 2.413
upperback -1.49176 2.17959 0.684676
thorax -2.89501 1.04629 -0.755773
lowerneck -23.1891 3.57267 4.1297
upperneck 27.303 3.31252 0.798654
head 13.0895 2.01655 0.211874
rclavicle 1.52816e-014 1.21259e-014
rhumerus -31.2798 -3.41416 -84.2588
rradius 24.9864
rwrist -4.00186
rhand -21.6357 20.2176
rfingers 7.12502
rthumb 4.76058 -9.70891
lclavicle 1.52816e-014 1.21259e-014
lhumerus -35.7944 -8.85353 90.7573
lradius 33.4818
lwrist 28.7006
lhand -20.0079 58.6898
lfingers 7.12502
lthumb 6.33218 88.5752
rfemur 5.28357 -3.69384 23.5662
rtibia -2.70347e-014
rfoot -8.52676 -13.4572
rtoes -4.40326
lfemur -12.8108 -8.51056 -11.1509
ltibia 28.0537
lfoot -18.7268 7.08702
ltoes -29.1946
41
root 6.03624 17.4642 -11.475 4.41409 2.60337 -4.21083
lowerback 2.60418 1.53612 2.3891
upperback -1.47734 2.16191 0.680937
thorax -2.91629 1.03773 -0.747099
lowerneck -23.1845 3.58873 4.11182
upperneck 27.2237 3.3278 0.844436
head 13.0549 2.02716 0.234223
rclavicle -4.72114e-015 1.13307e-014
rhumerus -31.2089 -3.56009 -84.1805
rradius 24.9497
rwrist -3.66553
rhand -21.4941 20.0793
rfingers 7.12502
rthumb 4.89728 -9.84409
lclavicle -4.72114e-015 1.13307e-014
lhumerus -35.8165 -8.94608 90.7704
lradius 33.5116
lwrist 28.7602
lhand -19.8971 58.69
lfingers 7.12502
lthumb 6.43914 88.5721
rfemur 5.28178 -3.71914 23.546
rtibia -2.38542e-014
rfoot -8.53886 -13.3934
rtoes -4.36972
lfemur -12.8031 -8.5207 -11.1603
ltibia 28.0261
lfoot -18.7102 7.07645
ltoes -29.0505
42
root 6.03628 17.4663 -11.4724 4.42838 2.59732 -4.21053
lowerback 2.64863 1.5436 2.39929
upperback -1.46898 2.17283 0.656532
thorax -2.93108 1.04257 -0.779597
lowerneck -23.1874 3.57644 4.17084
upperneck 27.1415 3.29945 0.804662
head 13.0236 2.0146 0.202813
rclavicle -8.79622e-015 -3.97569e-016
rhumerus -31.1732 -3.73057 -84.1188
rradius 24.9312
rwrist -3.33597
rhand -21.5553 20.0169
rfingers 7.12502
rthumb 4.83819 -9.90787
lclavicle -8.79622e-015 -3.97569e-016
lhumerus -35.826 -9.0787 90.7818
lradius 33.4746
lwrist 28.7009
lhand -19.7463 58.759
lfingers 7.12502
lthumb 6.5847 88.6366
rfemur 5.27558 -3.71248 23.5418
rtibia 9.54166e-015
rfoot -8.5468 -13.39
rtoes -4.16883
lfemur -12.8003 -8.53297 -11.1635
ltibia 28.019
lfoot -18.7306 7.0994
ltoes -28.9232
43
root 6.03141 17.4683 -11.4767 4.52939 2.65065 -4.26259
lowerback 2.69359 1.52969 2.3714
upperback -1.52097 2.15649 0.681608
thorax -3.01251 1.03391 -0.7398
lowerneck -23.1761 3.56631 4.21379
upperneck 27.0877 3.28252 0.761405
head 13.0008 2.00511 0.17493
rclavicle -3.13334e-014 3.77691e-015
rhumerus -31.1717 -3.76662 -84.0839
rradius 24.9418
rwrist -3.11034
rhand -21.5373 20.3086
rfingers 7.12502
rthumb 4.85552 -9.61581
lclavicle -3.13334e-014 3.77691e-015
lhumerus -35.843 -9.21076 90.8472
lradius 33.4013
lwrist 28.6709
lhand -19.7941 58.8676
lfingers 7.12502
lthumb 6.5386 88.7467
rfemur 5.15726 -3.7553 23.6472
rtibia 3.18055e-014
rfoot -8.49954 -13.4377
rtoes -3.87499
lfemur -12.9502 -8.36098 -11.0463
ltibia 28.0243
lfoot -18.7144 6.92924
ltoes -29.086
44
root 6.03044 17.4685 -11.4773 4.59285 2.68156 -4.316
lowerback 2.73554 1.50081 2.36686
upperback -1.56411 2.12119 0.719593
thorax -3.08334 1.01568 -0.698514
lowerneck -23.2026 3.57813 4.21772
upperneck 27.1573 3.30528 0.734122
head 13.0357 2.01208 0.169159
rclavicle 9.93923e-015 -5.36719e-015
rhumerus -31.1926 -3.70693 -84.0591
rradius 24.976
rwrist -2.94081
rhand -21.2723 20.6758
rfingers 7.12502
rthumb 5.11145 -9.24259
lclavicle 9.93923e-015 -5.36719e-015
lhumerus -35.8949 -9.30529 90.9151
lradius 33.3584
lwrist 28.7548
lhand -19.876 58.9126
lfingers 7.12502
lthumb 6.45953 88.7941
rfemur 5.08869 -3.77776 23.7207
rtibia -1.11319e-014
rfoot -8.48974 -13.4346
rtoes -3.54103
lfemur -13.0427 -8.30847 -10.9607
ltibia 28.0359
lfoot -18.7066 6.86377
ltoes -29.2453
45
root 6.03092 17.47 -11.4762 4.66882 2.67229 -4.30255
lowerback 2.75352 1.4583 2.31596
upperback -1.60916 2.06432 0.731751
thorax -3.14375 0.987561 -0.655976
lowerneck -23.2257 3.62954 4.23794
upperneck 27.2793 3.38085 0.701528
head 13.093 2.0435 0.168783
rclavicle -5.96354e-015 -8.54774e-015
rhumerus -31.2131 -3.616 -84.0549
rradius 25.0226
rwrist -2.73139
rhand -21.0266 20.6928
rfingers 7.12502
rthumb 5.34862 -9.21969
lclavicle -5.96354e-015 -8.54774e-015
lhumerus -35.9747 -9.28331 90.9039
lradius 33.3495
lwrist 28.8203
lhand -19.8602 58.8931
lfingers 7.12502
lthumb 6.47482 88.7741
rfemur 5.00505 -3.76439 23.712
rtibia -2.22639e-014
rfoot -8.48688 -13.4429
rtoes -3.37887
lfemur -13.1294 -8.28917 -10.9648
ltibia 28.0501
lfoot -18.6938 6.83427
ltoes -29.2084
46
root 6.0322 17.4722 -11.4742 4.72737 2.63512 -4.27565
lowerback 2.77481 1.43141 2.26023
upperback -1.63578 2.02749 0.735339
thorax -3.18623 0.969794 -0.6203
lowerneck -23.1547 3.68846 4.28217
upperneck 27.2591 3.47418 0.634733
head 13.0745 2.0795 0.150743
rclavicle 2.25745e-014 -5.96354e-016
rhumerus -31.2 -3.58004 -84.0238
rradius 25.0444
rwrist -2.51641
rhand -20.9047 20.505
rfingers 7.12502
rthumb 5.46639 -9.40451
lclavicle 2.25745e-014 -5.96354e-016
lhumerus -36.0312 -9.27641 90.8937
lradius 33.337
lwrist 28.8392
lhand -19.9006 58.8622
lfingers 7.12502
lthumb 6.43573 88.7444
rfemur 4.94302 -3.72552 23.6761
rtibia -3.02153e-014
rfoot -8.49051 -13.4278
rtoes -3.20512
lfemur -13.1907 -8.24724 -10.9945
ltibia 28.0829
lfoot -18.6868 6.79985
ltoes -28.8445
47
root 6.03312 17.4732 -11.4719 4.75664 2.59932 -4.27545
lowerback 2.8054 1.44472 2.25068
upperback -1.63542 2.04563 0.730143
thorax -3.20277 0.978784 -0.622141
lowerneck -23.1452 3.68281 4.2521
upperneck 27.2386 3.47439 0.646436
head 13.063 2.07791 0.159852
rclavicle 2.90723e-014 -1.59028e-015
rhumerus -31.1512 -3.66972 -83.9566
rradius 25.0221
rwrist -2.40436
rhand -20.8113 20.4686
rfingers 7.12502
rthumb 5.55654 -9.43852
lclavicle 2.90723e-014 -1.59028e-015
lhumerus -36.0109 -9.38423 90.9309
lradius 33.2849
lwrist 28.8649
lhand -19.996 58.9294
lfingers 7.12502
lthumb 6.34365 88.8144
rfemur 4.91934 -3.68804 23.6636
rtibia -3.81667e-014
rfoot -8.5265 -13.3842
rtoes -2.89269
lfemur -13.2372 -8.17604 -10.998
ltibia 28.1551
lfoot -18.7009 6.74708
ltoes -28.5074
